<?xml version="1.0" encoding="utf-8"?>
<!-- Generator: Adobe Illustrator 21.0.2, SVG Export Plug-In . SVG Version: 6.00 Build 0)  -->
<svg version="1.1" id="_x30_ecddb11-7acf-4290-b228-71891a18d9c4"
	 xmlns="http://www.w3.org/2000/svg" xmlns:xlink="http://www.w3.org/1999/xlink" x="0px" y="0px" viewBox="0 0 156.41 21.97"
	 enable-background="new 0 0 156.41 21.97" xml:space="preserve">
<g>
	<g>
		<path fill="#1C8FBE" stroke="#141414" stroke-width="0.35" stroke-linecap="round" stroke-linejoin="round" d="M4.672,19.866
			h2.641v-18.3H4.672V19.866z M14.859,19.866v-2.641H8.822v2.641H14.859z"/>
		<path fill="#1C8FBE" stroke="#141414" stroke-width="0.35" stroke-linecap="round" stroke-linejoin="round" d="M55.894,10.055
			c1.429-0.655,2.323-2.108,2.264-3.679c0-3.207-2.358-4.811-6.415-4.811h-5.66v2.641h6.037c2.075,0,3.302,0.755,3.302,2.264
			s-1.226,2.264-3.302,2.264h-6.037v2.641h6.415c2.264,0,3.773,0.943,3.773,2.924s-1.509,2.924-3.773,2.924h-6.415v2.641h6.886
			c3.773,0,6.037-2.358,6.037-5.471C59.157,12.385,57.845,10.557,55.894,10.055z"/>
		<path fill="#1C8FBE" stroke="#141414" stroke-width="0.6509" stroke-linecap="round" stroke-linejoin="round" d="M73.628,9.206
			c-2.924-0.566-4.245-1.226-4.245-2.641c0-1.604,1.415-2.547,4.056-2.547c1.808-0.033,3.55,0.684,4.811,1.981l1.321-2.358
			c-1.688-1.422-3.83-2.192-6.037-2.17c-4.339,0-6.698,2.358-6.698,5.283c0,2.453,1.509,4.245,6.698,5.188
			c2.547,0.472,4.245,1.321,4.245,2.83c0,1.792-1.509,2.83-4.339,2.83c-2.271-0.065-4.417-1.053-5.943-2.736l-1.321,2.358
			c1.858,1.971,4.461,3.067,7.169,3.019c4.339,0,7.075-2.358,7.075-5.566S78.062,10.055,73.628,9.206z"/>
		<path fill="#1C8FBE" stroke="#141414" stroke-width="0.6509" stroke-linecap="round" stroke-linejoin="round" d="M86.174,1.565
			l7.83,18.772l1.415-3.396l-6.32-15.376H86.174z M94.947,11.282l1.415,3.302l2.83-6.981l5.094,12.64l1.321-3.302L99.098,0.999
			L94.947,11.282z M109.097,1.565l-3.962,9.811l1.415,3.396l5.471-13.206H109.097z"/>
		<path fill="#1C8FBE" stroke="#141414" stroke-width="0.6509" stroke-linecap="round" stroke-linejoin="round" d="M123.341,1.094
			l-8.962,18.772h2.924l1.792-3.962l0,0l4.151-9.056l4.151,9.056l0,0l1.792,3.962h2.924L123.341,1.094z"/>
		<path fill="#1C8FBE" stroke="#141414" stroke-width="0.6509" stroke-linecap="round" stroke-linejoin="round" d="M144.566,1.565
			h-5.754v2.641h6.509c1.981,0,3.773,1.038,3.773,3.396s-1.604,3.302-3.585,3.302h-6.698v8.962h2.641v-6.32h3.962
			c3.275,0.21,6.101-2.275,6.311-5.55c0.012-0.194,0.015-0.388,0.009-0.582C151.641,3.924,149.377,1.565,144.566,1.565z"/>
	</g>
	<g>
		<g id="XMLID_7_">
			<g>
				<polygon fill="#797979" points="30.677,12.082 38.158,15.775 23.174,15.775 23.172,15.77 30.643,12.082 30.655,3.432 
					30.665,3.432 				"/>
				<polygon fill="#A7A7A7" points="30.655,3.432 30.643,12.082 23.172,15.77 23.16,15.776 				"/>
				<polygon fill="#C3C3C3" points="30.665,3.432 38.159,15.775 38.158,15.775 30.677,12.082 				"/>
				<polygon fill="#0075AB" points="23.174,15.775 38.158,15.775 38.16,15.776 38.143,20.971 30.671,20.941 30.649,20.941 
					23.177,20.971 23.16,15.776 23.172,15.77 				"/>
				<polygon fill="#0075AB" points="34.823,2.427 41.108,13.135 38.161,15.775 38.159,15.775 30.665,3.432 				"/>
				<polygon fill="#0075AB" points="30.655,3.432 23.16,15.776 20.211,13.135 26.497,2.427 				"/>
				<polygon fill="#014D6F" points="23.16,15.776 23.177,20.971 20.211,13.135 				"/>
				<polygon fill="#014D6F" points="38.161,15.775 41.108,13.135 38.143,20.971 38.16,15.776 				"/>
				<polygon fill="#014D6F" points="34.823,2.427 30.665,3.432 30.655,3.432 26.497,2.427 30.649,1.31 30.671,1.31 				"/>
			</g>
			<g>
				
					<polyline fill="none" stroke="#000000" stroke-width="0.2167" stroke-linecap="round" stroke-linejoin="round" stroke-miterlimit="10" points="
					30.671,1.31 34.823,2.427 41.108,13.135 38.143,20.971 30.671,20.941 				"/>
				
					<line fill="none" stroke="#000000" stroke-width="0.2167" stroke-linecap="round" stroke-linejoin="round" stroke-miterlimit="10" x1="30.665" y1="3.432" x2="34.823" y2="2.427"/>
				
					<polyline fill="none" stroke="#000000" stroke-width="0.2167" stroke-linecap="round" stroke-linejoin="round" stroke-miterlimit="10" points="
					41.108,13.135 38.161,15.775 38.16,15.776 38.143,20.971 				"/>
				
					<polygon fill="none" stroke="#000000" stroke-width="0.2167" stroke-linecap="round" stroke-linejoin="round" stroke-miterlimit="10" points="
					30.665,3.432 38.159,15.775 38.16,15.776 38.158,15.775 30.677,12.082 				"/>
				
					<polyline fill="none" stroke="#000000" stroke-width="0.2167" stroke-linecap="round" stroke-linejoin="round" stroke-miterlimit="10" points="
					30.649,1.31 26.497,2.427 20.211,13.135 23.177,20.971 30.649,20.941 				"/>
				
					<line fill="none" stroke="#000000" stroke-width="0.2167" stroke-linecap="round" stroke-linejoin="round" stroke-miterlimit="10" x1="30.655" y1="3.432" x2="26.497" y2="2.427"/>
				
					<polyline fill="none" stroke="#000000" stroke-width="0.2167" stroke-linecap="round" stroke-linejoin="round" stroke-miterlimit="10" points="
					20.211,13.135 23.16,15.776 23.177,20.971 				"/>
				
					<polygon fill="none" stroke="#000000" stroke-width="0.2167" stroke-linecap="round" stroke-linejoin="round" stroke-miterlimit="10" points="
					30.655,3.432 23.16,15.776 23.172,15.77 30.643,12.082 				"/>
				
					<polyline fill="none" stroke="#000000" stroke-width="0.2167" stroke-linecap="round" stroke-linejoin="round" stroke-miterlimit="10" points="
					23.174,15.775 38.158,15.775 38.159,15.775 38.161,15.775 38.168,15.775 				"/>
			</g>
		</g>
	</g>
</g>
</svg>
