<svg id="0ecddb11-7acf-4290-b228-71891a18d9c4" data-name="Layer 1" xmlns="http://www.w3.org/2000/svg" viewBox="0 0 156.41 21.97"><defs><style>.\39 2be2e0d-2a0a-43b3-bb9b-42eae897c1cf{fill:#174e74;}.\34 989f2e2-0184-4153-a91d-73369307bd08,.\35 fe94d9f-bd20-4c04-8dfe-95b39c7c6a38,.\38 798ee51-d406-491b-9221-ca6aab9c1f4e,.\39 2be2e0d-2a0a-43b3-bb9b-42eae897c1cf,.cd7d28d2-0b8f-46fd-90cb-7a67b8c7d9e0{stroke:#000;stroke-miterlimit:10;stroke-width:0.25px;}.\35 fe94d9f-bd20-4c04-8dfe-95b39c7c6a38{fill:#1476a8;}.\34 989f2e2-0184-4153-a91d-73369307bd08{fill:#b4b4b4;}.cd7d28d2-0b8f-46fd-90cb-7a67b8c7d9e0{fill:#8a8a8a;}.\38 798ee51-d406-491b-9221-ca6aab9c1f4e{fill:#cdcdcd;}.\32 a6f3786-0c25-4cd8-8485-dc3c4af05db8,.\32 b4330cc-88ac-45c0-a460-2a0ccc38b353{fill:#1c8fbe;stroke:#141414;stroke-linecap:round;stroke-linejoin:round;}.\32 b4330cc-88ac-45c0-a460-2a0ccc38b353{stroke-width:0.34px;}.\32 a6f3786-0c25-4cd8-8485-dc3c4af05db8{stroke-width:0.69px;}</style></defs><title>156X40_Logo+escrita</title><path d="M36.17,31H19.25c-1-2.81-2.08-5.59-3.06-8.39a1.5,1.5,0,0,1,.26-1.07c2.3-3.76,4.63-7.5,7-11.32L27.78,9c1.29.35,2.65.7,4,1.1a1.31,1.31,0,0,1,.64.56c2.27,3.65,4.54,7.3,6.77,11a1.49,1.49,0,0,1,0,1.11c-.91,2.63-1.86,5.24-2.81,7.86A1.11,1.11,0,0,1,36.17,31ZM19.6,30.49H35.86V25.7H19.6Zm4-20L16.43,22.17l3,2.75,8-13.42Zm4.44,1,8,13.32,3-2.65L31.86,10.53Z" transform="translate(0.07 -9.01)"/><polygon class="92be2e0d-2a0a-43b3-bb9b-42eae897c1cf" points="27.75 2.26 23.88 1.3 27.8 0.27 31.7 1.31 27.75 2.26"/><polygon class="92be2e0d-2a0a-43b3-bb9b-42eae897c1cf" points="19.35 21.26 19.35 16.24 16.56 13.68 19.35 21.26"/><polygon class="92be2e0d-2a0a-43b3-bb9b-42eae897c1cf" points="36.32 21.26 36.32 16.24 39.11 13.68 36.32 21.26"/><polygon class="5fe94d9f-bd20-4c04-8dfe-95b39c7c6a38" points="23.71 1.51 27.5 2.49 19.46 15.91 16.5 13.16 23.71 1.51"/><polygon class="5fe94d9f-bd20-4c04-8dfe-95b39c7c6a38" points="31.94 1.51 28.14 2.49 36.19 15.91 39.16 13.16 31.94 1.51"/><rect class="5fe94d9f-bd20-4c04-8dfe-95b39c7c6a38" x="19.66" y="16.34" width="16.26" height="5.14"/><polygon class="4989f2e2-0184-4153-a91d-73369307bd08" points="27.71 2.84 27.71 11.78 19.79 15.86 27.71 2.84"/><polygon class="cd7d28d2-0b8f-46fd-90cb-7a67b8c7d9e0" points="27.8 12.05 35.71 16.07 19.88 16.07 27.8 12.05"/><polygon class="8798ee51-d406-491b-9221-ca6aab9c1f4e" points="28 2.84 28 11.78 35.91 15.86 28 2.84"/><path class="2b4330cc-88ac-45c0-a460-2a0ccc38b353" d="M.11,29.28H2.94V9.84H.11Zm10.88,0V26.51H4.57v2.77Z" transform="translate(0.07 -9.01)"/><path class="2b4330cc-88ac-45c0-a460-2a0ccc38b353" d="M54.46,18.81a4,4,0,0,0,2.36-3.92c0-3.37-2.54-5.08-6.82-5.08H44.06v2.77h6.39c2.24,0,3.55.78,3.55,2.43s-1.31,2.43-3.55,2.43H44.06v2.77h6.85c2.45,0,4,1,4,3.11s-1.56,3.11-4,3.11H44.06v2.77h7.33c4,0,6.39-2.5,6.39-5.84A4.48,4.48,0,0,0,54.46,18.81Z" transform="translate(0.07 -9.01)"/><path class="2a6f3786-0c25-4cd8-8485-dc3c4af05db8" d="M73.26,17.92c-3.14-.62-4.49-1.31-4.49-2.82,0-1.74,1.53-2.75,4.26-2.75a7.12,7.12,0,0,1,5.11,2.06l1.35-2.52a9.76,9.76,0,0,0-6.41-2.31c-4.65,0-7.14,2.5-7.14,5.63,0,2.61,1.56,4.53,7.1,5.47,2.72.46,4.53,1.42,4.53,3,0,1.85-1.63,3-4.6,3a8.69,8.69,0,0,1-6.27-2.86l-1.42,2.5a10.16,10.16,0,0,0,7.62,3.16c4.65,0,7.51-2.54,7.51-5.93S78,18.84,73.26,17.92Z" transform="translate(0.07 -9.01)"/><path class="2a6f3786-0c25-4cd8-8485-dc3c4af05db8" d="M86.54,9.84l8.27,19.9,1.47-3.62L89.6,9.84Zm9.27,10.35,1.47,3.5,3-7.37,5.45,13.42,1.44-3.48L100.25,9.4ZM110.9,9.84l-4.24,10.42,1.49,3.57,5.82-14-3.07,0Z" transform="translate(0.07 -9.01)"/><path class="2a6f3786-0c25-4cd8-8485-dc3c4af05db8" d="M125.94,9.36l-9.46,19.9h3.07l1.92-4.17h0l4.44-9.62,4.44,9.62h0l1.92,4.17h3.07Z" transform="translate(0.07 -9.01)"/><path class="2a6f3786-0c25-4cd8-8485-dc3c4af05db8" d="M148.44,9.84h-6.14v2.77h6.89c2.06,0,4,1.08,4,3.62s-1.74,3.55-3.82,3.55h-7.07v9.48h2.84V22.57h4.19a6.27,6.27,0,0,0,6.69-6.5C156,12.38,153.6,9.84,148.44,9.84Z" transform="translate(0.07 -9.01)"/></svg>