<svg id="1f847cd4-f7fe-4b81-a957-0af98fc942ee" data-name="Layer 1" xmlns="http://www.w3.org/2000/svg" viewBox="0 0 40.07 37.89"><defs><style>.c86db2a9-64b6-4f4c-a6dc-96d9d543c02d{fill:#174e74;}.\30 675a550-32c5-4918-bdfd-631371e78b9f,.\32 78cafea-671c-412f-b71b-bf5b45fd5e27,.\33 8b5235d-8d19-4e36-9c0b-50468364ed90,.c86db2a9-64b6-4f4c-a6dc-96d9d543c02d,.f969638b-82ea-48de-8215-bee4ab3c1214{stroke:#000;stroke-miterlimit:10;stroke-width:0.43px;}.\32 78cafea-671c-412f-b71b-bf5b45fd5e27{fill:#1476a8;}.\30 675a550-32c5-4918-bdfd-631371e78b9f{fill:#b4b4b4;}.f969638b-82ea-48de-8215-bee4ab3c1214{fill:#8a8a8a;}.\33 8b5235d-8d19-4e36-9c0b-50468364ed90{fill:#cdcdcd;}</style></defs><title>40x40_logo</title><path d="M34.59,38.93H5.35C3.56,34.07,1.75,29.27.05,24.43A2.59,2.59,0,0,1,.5,22.58c4-6.49,8-13,12.08-19.55l7.51-2C22.33,1.68,24.67,2.28,27,3a2.27,2.27,0,0,1,1.1,1c3.93,6.3,7.84,12.62,11.69,19a2.58,2.58,0,0,1,.08,1.92c-1.57,4.54-3.22,9.06-4.86,13.58A1.91,1.91,0,0,1,34.59,38.93ZM6,38.13H34V29.85H6Zm7-34.5L.48,23.76l5.13,4.75L19.5,5.32ZM20.62,5.3l13.8,23,5.18-4.58L27.14,3.63Z" transform="translate(0 -1.07)"/><polygon class="c86db2a9-64b6-4f4c-a6dc-96d9d543c02d" points="19.93 3.85 13.24 2.2 20 0.41 26.74 2.2 19.93 3.85"/><polygon class="c86db2a9-64b6-4f4c-a6dc-96d9d543c02d" points="5.41 36.68 5.41 28.01 0.59 23.58 5.41 36.68"/><polygon class="c86db2a9-64b6-4f4c-a6dc-96d9d543c02d" points="34.73 36.68 34.73 28.01 39.55 23.58 34.73 36.68"/><polygon class="278cafea-671c-412f-b71b-bf5b45fd5e27" points="12.95 2.56 19.5 4.25 5.61 27.43 0.48 22.68 12.95 2.56"/><polygon class="278cafea-671c-412f-b71b-bf5b45fd5e27" points="27.16 2.56 20.6 4.25 34.49 27.43 39.63 22.68 27.16 2.56"/><rect class="278cafea-671c-412f-b71b-bf5b45fd5e27" x="5.95" y="28.18" width="28.09" height="8.87"/><polygon class="0675a550-32c5-4918-bdfd-631371e78b9f" points="19.85 4.85 19.85 20.29 6.17 27.34 19.85 4.85"/><polygon class="f969638b-82ea-48de-8215-bee4ab3c1214" points="20 20.77 33.67 27.71 6.33 27.71 20 20.77"/><polygon class="38b5235d-8d19-4e36-9c0b-50468364ed90" points="20.35 4.85 20.35 20.29 34.03 27.34 20.35 4.85"/></svg>