<svg xmlns="http://www.w3.org/2000/svg" viewBox="0 0 24 24"><defs><style>.\31 c2fbdc5-81b3-41f8-ab82-c20db92e980a{fill:#1476a9;}.\37 f596f88-a448-4048-9380-fcbaa584796f,.b3eaf037-89f5-4be0-8cdf-f358d287be74{fill:none;stroke:#1476a9;stroke-miterlimit:10;}.b3eaf037-89f5-4be0-8cdf-f358d287be74{stroke-width:0.99px;}</style></defs><title>Artboard 3</title><g id="9875578b-0126-4725-9af1-b85f764e460b" data-name="web"><path class="1c2fbdc5-81b3-41f8-ab82-c20db92e980a" d="M12,1A11,11,0,1,1,1,12,11,11,0,0,1,12,1m0-1A12,12,0,1,0,24,12,12,12,0,0,0,12,0Z"/><path class="1c2fbdc5-81b3-41f8-ab82-c20db92e980a" d="M12,1c3.09,0,5.69,5,5.69,11S15.09,23,12,23,6.31,18,6.31,12,8.91,1,12,1m0-1C8.3,0,5.31,5.37,5.31,12S8.3,24,12,24s6.69-5.37,6.69-12S15.7,0,12,0Z"/><path class="b3eaf037-89f5-4be0-8cdf-f358d287be74" d="M21.84,5.52c-2.08,1-5.71,1.65-9.84,1.65S4.24,6.51,2.16,5.52"/><path class="b3eaf037-89f5-4be0-8cdf-f358d287be74" d="M21.84,18.48c-2.08-1-5.71-1.65-9.84-1.65s-7.76.66-9.84,1.65"/><line class="7f596f88-a448-4048-9380-fcbaa584796f" y1="12" x2="24" y2="12"/><line class="7f596f88-a448-4048-9380-fcbaa584796f" x1="12" x2="12" y2="24"/></g></svg>